<svg width="36" height="36" viewBox="0 0 36 36" fill="none" xmlns="http://www.w3.org/2000/svg">
<path d="M7.5 6C6.33161 6 5.26722 6.44529 4.46728 7.17541L18 16.1972L31.5327 7.17541C30.7328 6.44529 29.6684 6 28.5 6H7.5Z" fill="white"/>
<path d="M3 10.5C3 10.2742 3.01664 10.0522 3.04875 9.83528L17.1679 19.2481C17.6718 19.584 18.3282 19.584 18.8321 19.2481L32.9512 9.83528C32.9834 10.0522 33 10.2742 33 10.5V19.204C31.6762 18.4383 30.1393 18 28.5 18C23.5294 18 19.5 22.0294 19.5 27C19.5 28.0519 19.6805 29.0617 20.0121 30H7.5C5.01472 30 3 27.9853 3 25.5V10.5Z" fill="white"/>
<path d="M34.5 27C34.5 30.3137 31.8137 33 28.5 33C25.1863 33 22.5 30.3137 22.5 27C22.5 23.6863 25.1863 21 28.5 21C31.8137 21 34.5 23.6863 34.5 27Z" fill="#FA5050"/>
</svg>
